<svg width="170" height="108" viewBox="0 0 170 108" fill="none" xmlns="http://www.w3.org/2000/svg">
<path d="M70.7781 91.2772C43.8619 100.265 0.388534 91.0795 0.00239691 51.0523C-0.38374 11.0244 46.0132 34.8685 46.0132 34.8685L70.7781 91.2772Z" fill="#FFC250"/>
<path d="M13.0892 28.5942C31.8746 25.1374 46.1417 51.8694 61.9266 79.7546C77.7115 107.64 118.815 118.693 145.079 95.2427C171.342 71.7926 182.458 30.7221 150.21 6.22427C117.963 -18.2736 97.8332 37.3442 70.0719 38.873C42.3113 40.4018 42.1086 18.2415 13.0892 28.5942Z" fill="#FFD064"/>
<ellipse cx="147.49" cy="52.2984" rx="8.24437" ry="8.85351" fill="#FFE19D"/>
<ellipse cx="131.688" cy="58.9384" rx="6.18327" ry="6.64014" fill="#FFE19D"/>
<ellipse cx="142.681" cy="67.7915" rx="4.80921" ry="5.16455" fill="#FFE19D"/>
</svg>
